. 
 
http://www.torrenting.com          :     Once & For all ;)


               www . Torrenting . Com 

(((((((((((((= Enjoy No RAR releases =))))))))))))))))))))


...................................NFO:....................................

.
    The Devil Inside CAM XviD READNFO - NoZGT


Sources:
The Devil Inside 2012 CAM XVID NEW SOURCE UnKnOwN....THX
The.Devil.Inside.2012.Cam.SeT-CM8....THX for 1min 45sec in focus

Format                           : AVI
Format/Info                      : Audio Video Interleave
File size                        : 834 MiB
Duration                         : 1h 15mn
Overall bit rate                 : 1 543 Kbps
Writing library                  : VirtualDub build 33848/release

Video
ID                               : 0
Format                           : MPEG-4 Visual
Format profile                   : Advanced Simple@L5
Format settings, BVOP            : Yes
Format settings, QPel            : No
Format settings, GMC             : No warppoints
Format settings, Matrix          : Default (H.263)
Muxing mode                      : Packed bitstream
Codec ID                         : XVID
Codec ID/Hint                    : XviD
Duration                         : 1h 15mn
Bit rate                         : 1 403 Kbps
Width                            : 720 pixels
Height                           : 304 pixels
Display aspect ratio             : 2.35:1
Frame rate                       : 29.970 fps
Color space                      : YUV
Chroma subsampling               : 4:2:0
Bit depth                        : 8 bits
Scan type                        : Progressive
Bits/(Pixel*Frame)               : 0.214
Stream size                      : 758 MiB (91%)
Writing library                  : XviD 1.2.1 (UTC 2008-12-04)

Audio
ID                               : 1
Format                           : MPEG Audio
Format version                   : Version 1
Format profile                   : Layer 3
Mode                             : Joint stereo
Mode extension                   : MS Stereo
Codec ID                         : 55
Codec ID/Hint                    : MP3
Duration                         : 1h 15mn
Bit rate mode                    : Constant
Bit rate                         : 128 Kbps
Channel(s)                       : 2 channels
Sampling rate                    : 48.0 KHz
Stream size                      : 69.2 MiB (8%)
Alignment                        : Split accross interleaves
Interleave, duration             : 33 ms (1.00 video frame)
Interleave, preload duration     : 500 ms

Workdone:
Well first off I thought I fix the out of focus footage. I used cm8 source and had to adjust the AR to fit with the new source. After that I stripped the audio from UnKnOwN source, ran it threw a denoiser and did some audio enhancements. I then combined the video with the in focus footage and sync the audio and turn out well. Did my usual levels, contrast, saturation adjustment. Hope everyone likes. 

NoZGT